<?xml version="1.0" encoding="UTF-8"?>
<svg version="1.1" viewBox="0 0 1780 1796" width="445" height="449" xmlns="http://www.w3.org/2000/svg">
<path transform="translate(893,384)" d="m0 0 4 4 14 24 14 25 14 24 28 49 15 26 15 25 12 21 14 24 16 28 15 25 10 18 9 15 30 52 9 15 17 29 30 52 9 15 17 29 16 28 14 24 16 28 14 24 15 26 13 22 15 26 9 15 30 52 14 24 15 26 13 22 14 24 13 22 17 29 30 52 16 27 12 21 10 17 9 15 2 7h-1197l2-5 16-28 16-27 14-24 10-17 11-19 5-7 806-1 89-1-1-5-13-23-14-24-16-28-13-22-12-21-14-24-15-26-9-15-15-26-10-17-8-14-10-17-13-22-15-26-14-24-16-28-9-15-14-24-13-23-13-22-14-25-10-17-9-15-12-21-14-24-15-26-14-24-12-21-12-19-3 1-13 21-15 26-28 48-15 26-28 48-12 21-9 15-17 29-14 24-30 52-12 21-17 29-13 23-42 72-16 28-12 19-5 1h-143l-3-1 2-5 13-23 10-17 14-24 15-26 17-29 10-17 12-20 15-26 17-29 9-15 14-24 16-27 24-42 8-13 8-14 13-23 10-17 11-19 12-21 16-27 12-21 16-27 12-21 14-24 13-23 8-14 17-29 9-15 13-23 14-24 16-27 15-27 15-26z" fill="#4D4B4B"/>
<path transform="translate(393,1188)" d="m0 0h15l3 5 12 26 5 11 3-1 5-9 10-21 5-10h15l1 1v79l-1 1h-14l-1-1-1-22-1-7-4 2-8 14-3 2h-8l-5-4-7-12v-2h-4l-2 31h-15z" fill="#4D4B4B"/>
<path transform="translate(485,1189)" d="m0 0h52l7 3 8 6 7 9 3 7 1 5v9l-2 10-6 9-5 5-9 6h-2l2 7v5h-15l-6-8-12-1-7 2-3 7h-13l-1-3v-76zm24 15-9 2-1 1 1 34 2 3 11 1h9l12-2 6-4 4-4 2-8-1-10-4-7-6-4-10-2z" fill="#4D4B4B"/>
<path transform="translate(625,1188)" d="m0 0h20v3l-9 9-9 11-10 11-5 7 2 4 13 15 11 13 7 8v2h-18l-5-3-13-13-7-8-7-5-1 29h-14l-2-1-1-9v-71l1-1h17v25l1 2 5-2 14-15 8-10z" fill="#4D4B4B"/>
</svg>
